<svg xmlns="http://www.w3.org/2000/svg" xmlns:xlink="http://www.w3.org/1999/xlink" width="512" height="512" viewBox="0 0 512 512" fill="none"><defs><filter id="noise" opacity="0"><feTurbulence type="fractalNoise" baseFrequency="19.5" numOctaves="10" result="turbulence"></feTurbulence><feComposite operator="in" in="turbulence" in2="SourceAlpha" result="composite"></feComposite><feColorMatrix in="composite" type="luminanceToAlpha"></feColorMatrix><feBlend in="SourceGraphic" in2="composite" mode="color-burn"></feBlend></filter><linearGradient id="linearGradient" gradientUnits="userSpaceOnUse" gradientTransform="rotate(45)" style="transform-origin: center center 0px;"><stop stop-color="#ed333b"></stop><stop offset="1" stop-color="#0c1118"></stop></linearGradient><radialGradient id="radialGradient" cx="50%" cy="50%" r="100%" fx="50%" fy="0%" gradientUnits="objectBoundingBox"><stop stop-color="#ed333b"></stop><stop offset="1" stop-color="#0c1118"></stop></radialGradient><radialGradient id="radialGlare" cx="0" cy="0" r="1" gradientUnits="userSpaceOnUse" gradientTransform="translate(256) rotate(90) scale(512)"><stop stop-color="white"></stop><stop offset="1" stop-color="white" stop-opacity="0"></stop></radialGradient><clipPath id="image-clip"><use xlink:href="#image"></use></clipPath></defs><rect id="image" width="512" height="512" rx="32" ry="32" fill="url(#radialGradient)" stroke="#FFFFFF" stroke-width="0" stroke-opacity="100%" paint-order="stroke"></rect><g transform="rotate(0 0 0)" style="transform-origin: 256px 256px 0px;"><svg xmlns="http://www.w3.org/2000/svg" width="400" height="400" viewBox="0 0 24 24" fill="none" stroke="#ffbe6f" stroke-width="1" stroke-linecap="round" stroke-linejoin="round" class="lucide lucide-message-circle-heart" x="56" y="56"><path d="M7.9 20A9 9 0 1 0 4 16.1L2 22Z"></path><path d="M15.8 9.2a2.5 2.5 0 0 0-3.5 0l-.3.4-.35-.3a2.42 2.42 0 1 0-3.2 3.6l3.6 3.5 3.6-3.5c1.2-1.2 1.1-2.7.2-3.7"></path></svg></g><image href="data:image/svg+xml,%3csvg%20viewBox='0%200%20400%20400'%20xmlns='http://www.w3.org/2000/svg'%3e%3cfilter%20id='noiseFilter'%3e%3cfeTurbulence%20type='fractalNoise'%20baseFrequency='1.73'%20numOctaves='3'%20stitchTiles='stitch'/%3e%3c/filter%3e%3crect%20width='100%25'%20height='100%25'%20filter='url(%23noiseFilter)'/%3e%3c/svg%3e" width="512" height="512" rx="32" ry="32" opacity="0%" clip-path="url(#image-clip)"></image></svg>